{"asset":{"version":"2.0","generator":"babylon.js glTF exporter for Autodesk MAYA 2023.3 v20250113.1"},"scene":0,"scenes":[{"nodes":[0]}],"nodes":[{"mesh":0,"name":"MNM_Logo"}],"meshes":[{"primitives":[{"attributes":{"POSITION":1,"TANGENT":2,"NORMAL":3,"TEXCOORD_0":4},"indices":0,"material":0}],"name":"MNM_Logo"}],"accessors":[{"bufferView":0,"componentType":5123,"count":45804,"type":"SCALAR","name":"accessorIndices"},{"bufferView":1,"componentType":5126,"count":10860,"max":[0.0390814878,0.0391633362,0.0005],"min":[-0.0391633064,-0.0390812345,-0.0025],"type":"VEC3","name":"accessorPositions"},{"bufferView":2,"componentType":5126,"count":10860,"type":"VEC4","name":"accessorTangents"},{"bufferView":1,"byteOffset":130320,"componentType":5126,"count":10860,"type":"VEC3","name":"accessorNormals"},{"bufferView":3,"componentType":5126,"count":10860,"type":"VEC2","name":"accessorUVs"}],"bufferViews":[{"buffer":0,"byteLength":91608,"name":"bufferViewScalar"},{"buffer":0,"byteOffset":91608,"byteLength":260640,"byteStride":12,"name":"bufferViewFloatVec3"},{"buffer":0,"byteOffset":352248,"byteLength":173760,"byteStride":16,"name":"bufferViewFloatVec4"},{"buffer":0,"byteOffset":526008,"byteLength":86880,"byteStride":8,"name":"bufferViewFloatVec2"}],"buffers":[{"uri":"mNm_logo.bin","byteLength":612888}],"materials":[{"pbrMetallicRoughness":{"baseColorFactor":[0.5,0.5,0.5,1.0],"metallicFactor":0.0,"roughnessFactor":0.450053632},"name":"lambert1"}]}