{"asset":{"version":"2.0","generator":"babylon.js glTF exporter for Autodesk MAYA 2023.3 v20250113.1"},"scene":0,"scenes":[{"nodes":[0]}],"nodes":[{"children":[1,2,3,4,5,6],"name":"logo"},{"mesh":0,"translation":[-0.02592006,-0.0199857913,-0.008324294],"scale":[0.6278075,0.6278075,0.6278075],"name":"mind"},{"mesh":1,"translation":[-0.02592006,-0.0199857913,-0.008324294],"scale":[0.6278075,0.6278075,0.6278075],"name":"mind_n_you"},{"mesh":2,"translation":[0.0259965565,0.0203974918,-0.008324294],"rotation":[0.0,0.0,-1.0,6.123234E-17],"scale":[0.6278075,0.6278075,0.6278075],"name":"you"},{"mesh":3,"translation":[0.019972682,-0.02585761,-0.008324294],"rotation":[0.0,0.0,0.707106769,0.707106769],"scale":[0.6278075,0.6278075,0.6278075],"name":"muscl"},{"mesh":4,"translation":[0.019972682,-0.02585761,-0.008324294],"rotation":[0.0,0.0,0.707106769,0.707106769],"scale":[0.6278075,0.6278075,0.6278075],"name":"musc_n_nutrition"},{"mesh":5,"translation":[-0.0202168077,0.0258304384,-0.008324294],"rotation":[0.0,0.0,-0.707106769,0.707106769],"scale":[0.6278075,0.6278075,0.6278075],"name":"nutrition"}],"meshes":[{"primitives":[{"attributes":{"POSITION":1,"NORMAL":2},"indices":0,"material":0}],"name":"mind"},{"primitives":[{"attributes":{"POSITION":4,"NORMAL":5},"indices":3,"material":1}],"name":"mind_n_you"},{"primitives":[{"attributes":{"POSITION":7,"NORMAL":8},"indices":6,"material":2}],"name":"you"},{"primitives":[{"attributes":{"POSITION":10,"NORMAL":11},"indices":9,"material":3}],"name":"muscl"},{"primitives":[{"attributes":{"POSITION":13,"NORMAL":14},"indices":12,"material":4}],"name":"musc_n_nutrition"},{"primitives":[{"attributes":{"POSITION":16,"NORMAL":17},"indices":15,"material":5}],"name":"nutrition"}],"accessors":[{"bufferView":0,"componentType":5123,"count":7788,"type":"SCALAR","name":"accessorIndices"},{"bufferView":1,"componentType":5126,"count":1752,"max":[0.0720223337,0.09387366,0.0167037342],"min":[0.0109579563,0.0389858149,0.0100099994],"type":"VEC3","name":"accessorPositions"},{"bufferView":1,"byteOffset":21024,"componentType":5126,"count":1752,"type":"VEC3","name":"accessorNormals"},{"bufferView":0,"byteOffset":15576,"componentType":5123,"count":4980,"type":"SCALAR","name":"accessorIndices"},{"bufferView":1,"byteOffset":42048,"componentType":5126,"count":1126,"max":[0.07088,0.05629751,0.01671373],"min":[0.0120623177,0.008459072,0.0100199981],"type":"VEC3","name":"accessorPositions"},{"bufferView":1,"byteOffset":55560,"componentType":5126,"count":1126,"type":"VEC3","name":"accessorNormals"},{"bufferView":0,"byteOffset":25536,"componentType":5123,"count":7788,"type":"SCALAR","name":"accessorIndices"},{"bufferView":1,"byteOffset":69072,"componentType":5126,"count":1752,"max":[0.0720223337,0.09387366,0.0167037342],"min":[0.0109579563,0.0389858149,0.0100099994],"type":"VEC3","name":"accessorPositions"},{"bufferView":1,"byteOffset":90096,"componentType":5126,"count":1752,"type":"VEC3","name":"accessorNormals"},{"bufferView":0,"byteOffset":41112,"componentType":5123,"count":7788,"type":"SCALAR","name":"accessorIndices"},{"bufferView":1,"byteOffset":111120,"componentType":5126,"count":1752,"max":[0.0720223337,0.09387366,0.0167037342],"min":[0.0109579563,0.0389858149,0.0100099994],"type":"VEC3","name":"accessorPositions"},{"bufferView":1,"byteOffset":132144,"componentType":5126,"count":1752,"type":"VEC3","name":"accessorNormals"},{"bufferView":0,"byteOffset":56688,"componentType":5123,"count":4980,"type":"SCALAR","name":"accessorIndices"},{"bufferView":1,"byteOffset":153168,"componentType":5126,"count":1126,"max":[0.07088,0.05629751,0.01671373],"min":[0.0120623177,0.008459072,0.0100199981],"type":"VEC3","name":"accessorPositions"},{"bufferView":1,"byteOffset":166680,"componentType":5126,"count":1126,"type":"VEC3","name":"accessorNormals"},{"bufferView":0,"byteOffset":66648,"componentType":5123,"count":7788,"type":"SCALAR","name":"accessorIndices"},{"bufferView":1,"byteOffset":180192,"componentType":5126,"count":1752,"max":[0.0720223337,0.09387366,0.0167037342],"min":[0.0109579563,0.0389858149,0.0100099994],"type":"VEC3","name":"accessorPositions"},{"bufferView":1,"byteOffset":201216,"componentType":5126,"count":1752,"type":"VEC3","name":"accessorNormals"}],"bufferViews":[{"buffer":0,"byteLength":82224,"name":"bufferViewScalar"},{"buffer":0,"byteOffset":82224,"byteLength":222240,"byteStride":12,"name":"bufferViewFloatVec3"}],"buffers":[{"uri":"mNm_logo.bin","byteLength":304464}],"materials":[{"pbrMetallicRoughness":{"baseColorFactor":[0.5,0.5,0.5,1.0],"metallicFactor":0.0,"roughnessFactor":0.201679826},"name":"mindSG"},{"pbrMetallicRoughness":{"baseColorFactor":[0.5,0.5,0.5,1.0],"metallicFactor":0.0,"roughnessFactor":0.201679826},"name":"mind_n_you_SG"},{"pbrMetallicRoughness":{"baseColorFactor":[0.5,0.5,0.5,1.0],"metallicFactor":0.0,"roughnessFactor":0.201679826},"name":"youSG"},{"pbrMetallicRoughness":{"baseColorFactor":[0.5,0.5,0.5,1.0],"metallicFactor":0.0,"roughnessFactor":0.201679826},"name":"musclSG"},{"pbrMetallicRoughness":{"baseColorFactor":[0.5,0.5,0.5,1.0],"metallicFactor":0.0,"roughnessFactor":0.201679826},"name":"muscl_n_nutrition_SG"},{"pbrMetallicRoughness":{"baseColorFactor":[0.5,0.5,0.5,1.0],"metallicFactor":0.0,"roughnessFactor":0.201679826},"name":"nutritionSG"}]}